<svg width="30" height="32" viewBox="0 0 30 32" fill="none" xmlns="http://www.w3.org/2000/svg">
<g id="Logo2">
<path id="Vector" d="M25.5342 24.6023C25.5342 24.6023 21.4422 20.2689 21.4455 20.2689C23.0664 18.2213 24.0456 15.6411 24.0456 12.869C24.0456 9.76279 22.8878 6.95433 20.9659 4.84715C18.7992 2.4588 15.6632 0.970215 12.1469 0.970215H11.9021C7.33707 0.970215 3.31127 3.57689 1.32319 7.41744C1.32319 7.42075 1.31657 7.42406 1.31657 7.42737C0.476346 9.05489 0 10.9007 0 12.869C0 19.4651 5.22659 24.6023 11.6904 24.7677C11.8789 24.7876 12.1105 24.7214 12.2924 24.6619C12.4611 24.609 12.6232 24.5329 12.7721 24.4336C13.0731 24.2318 13.3079 23.9407 13.4469 23.6066V23.5967C13.4634 23.5669 13.4734 23.5372 13.4833 23.5107C13.4932 23.4809 13.5097 23.4512 13.5163 23.4181C13.5263 23.385 13.5329 23.3519 13.5395 23.3155C13.5461 23.2825 13.5527 23.2494 13.5594 23.2163V23.1998C13.5693 23.1468 13.5693 23.0906 13.5726 23.0344C13.5726 22.9947 13.5825 22.9583 13.5825 22.9186C13.5825 22.2868 13.1756 21.6516 12.6133 21.3241C12.395 21.1984 12.1601 21.129 11.912 21.1058C11.8789 21.1058 11.8491 21.1058 11.8161 21.0992C11.7102 21.0926 11.601 21.0926 11.4952 21.086C11.3893 21.0793 11.2802 21.0727 11.1743 21.0595C10.9593 21.0397 10.7443 21.0099 10.5326 20.9702C10.5293 20.9702 10.5259 20.9702 10.5226 20.9702C10.3738 20.9404 10.2315 20.904 10.0827 20.8676C8.51471 20.5038 7.06582 19.6602 5.9775 18.5752C5.29937 17.8938 4.83294 17.1131 4.38306 16.2233C4.30366 16.0512 4.2342 15.8792 4.16804 15.7039C4.16804 15.6907 4.16142 15.6774 4.15481 15.6642C3.87032 14.7942 3.68507 13.8316 3.68507 12.7797C3.68507 12.6639 3.68508 12.5481 3.69169 12.4323C3.75454 10.8577 4.2342 9.3096 5.13066 8.07242C6.58286 5.89578 9.11676 4.44689 12.0145 4.44689C14.9123 4.44689 17.4495 5.89578 18.8951 8.07242C19.6195 9.06812 20.0727 10.2656 20.2514 11.5193C20.3142 11.9361 20.344 12.3562 20.344 12.7797C20.344 13.911 20.1157 15.0092 19.7089 16.0082C19.5137 16.4912 19.2722 16.9543 18.991 17.3943C18.7959 17.6986 18.6007 18.0062 18.3493 18.2676C18.0417 18.5918 17.6546 18.863 17.4297 19.2567C17.4164 19.2765 17.4065 19.2964 17.3966 19.3129C17.3867 19.3294 17.3768 19.3427 17.3701 19.3559C17.3668 19.3625 17.3602 19.3691 17.3569 19.3757C17.3503 19.3923 17.3437 19.4055 17.3371 19.4221C17.3139 19.4684 17.2941 19.5147 17.2775 19.5643C17.2742 19.5709 17.2709 19.5775 17.2676 19.5875C17.2643 19.6007 17.261 19.6139 17.2577 19.6272C17.2511 19.6503 17.2444 19.6702 17.2378 19.6933C17.2312 19.7198 17.2213 19.7429 17.2147 19.7694C17.2047 19.8058 17.1981 19.8455 17.1915 19.8852C17.1915 19.905 17.1849 19.9216 17.1849 19.9414C17.1617 20.1035 17.1617 20.2656 17.175 20.4277C17.1783 20.4773 17.1816 20.5269 17.1882 20.5765C17.1882 20.5865 17.1915 20.5931 17.1948 20.603C17.2014 20.6328 17.208 20.6592 17.2147 20.689C17.2246 20.732 17.2312 20.775 17.2444 20.818C17.2444 20.818 17.2444 20.8279 17.251 20.8313C17.2544 20.8445 17.261 20.8577 17.2643 20.8743C17.2775 20.914 17.2907 20.9536 17.304 20.9933C17.3106 21.0165 17.3172 21.0397 17.3271 21.0595C17.3437 21.0959 17.3602 21.1323 17.3801 21.1687C17.3801 21.1753 17.3867 21.1819 17.39 21.1852C17.4429 21.2878 17.5024 21.3837 17.5686 21.4664L18.0714 22.0254C18.0714 22.0254 18.6536 22.6771 18.6569 22.6771L22.8812 27.1429C23.2418 27.5067 23.7247 27.6258 24.2077 27.6258C24.6907 27.6258 25.1736 27.5034 25.5342 27.1429C26.2586 26.4184 26.2586 25.3301 25.5342 24.6089V24.6023Z" fill="#006AFF"/>
<path id="Vector_2" d="M28.1939 31.0298C29.1914 31.0298 30 30.2211 30 29.2236C30 28.2261 29.1914 27.4175 28.1939 27.4175C27.1963 27.4175 26.3877 28.2261 26.3877 29.2236C26.3877 30.2211 27.1963 31.0298 28.1939 31.0298Z" fill="#006AFF"/>
</g>
</svg>
