<svg width="146" height="36" viewBox="0 0 146 36" fill="none" xmlns="http://www.w3.org/2000/svg">
<g id="Layer 1-2">
<path id="Vector" d="M12.5242 0.841797V28.1653H7.42792V5.47373H0.462891V0.841797" fill="#20201D"/>
<path id="Vector_2" d="M19.8886 18.3347C19.8886 12.4354 24.2541 8.2373 30.416 8.2373C36.578 8.2373 40.6124 12.1347 40.4107 18.2662H24.5852C24.6537 22.1331 27.1162 24.4319 30.416 24.4319C33.4152 24.4319 35.6151 22.666 35.8472 20.1349H40.8445C40.5096 25.1665 36.2126 28.5653 30.515 28.5653C24.1856 28.5653 19.8848 24.2683 19.8848 18.3347H19.8886ZM35.3144 15.0044C34.6141 12.9377 32.8481 11.7731 30.3818 11.7731C27.9155 11.7731 26.0505 13.0063 25.1828 15.0044H35.3144Z" fill="#20201D"/>
<path id="Vector_3" d="M43.4453 20.5003H48.4769C48.4769 23.0313 50.5436 24.7326 53.6417 24.7326C56.108 24.7326 57.8055 23.6669 57.8055 21.9656C57.8055 20.4014 56.3744 20.0664 55.4381 19.9332L50.9051 19.3661C48.4731 19.0655 45.1085 18.0683 45.1085 14.3346C45.1085 10.6008 48.2067 8.2373 53.0708 8.2373C57.9349 8.2373 60.8998 10.2697 61.3679 13.8702H56.4048C56.0395 12.5724 54.772 11.8721 53.0403 11.8721C51.2058 11.8721 49.8432 12.6713 49.8432 14.0719C49.8432 15.4726 51.2743 15.8037 52.1763 15.9369L56.6408 16.4697C59.2061 16.8047 62.6391 17.8704 62.6391 21.7677C62.6391 25.6651 59.0082 28.5653 53.577 28.5653C47.7461 28.5653 43.5481 25.3987 43.4491 20.5003H43.4453Z" fill="#20201D"/>
<path id="Vector_4" d="M68.0342 12.6713H64.4375V9.07462L65.7049 9.00611C67.5699 8.8729 68.4376 7.90617 68.5023 5.77479L68.6698 3.00781H72.8679V8.64073H77.8652V12.6713H72.8679V28.1657H68.038V12.6713H68.0342Z" fill="#20201D"/>
<path id="Vector_5" d="M86.2968 8.63672H81.3984V28.1616H86.2968V8.63672Z" fill="#20201D"/>
<path id="Vector_6" d="M123.846 18.3994C123.846 12.4696 128.379 8.2373 134.674 8.2373C140.969 8.2373 145.536 12.4696 145.536 18.3994C145.536 24.3292 141.003 28.5615 134.674 28.5615C128.344 28.5615 123.846 24.3292 123.846 18.3994ZM134.674 24.3977C138.137 24.3977 140.638 21.8667 140.638 18.3994C140.638 14.9321 138.137 12.4011 134.674 12.4011C131.21 12.4011 128.775 14.9321 128.775 18.3994C128.775 21.8667 131.241 24.3977 134.674 24.3977Z" fill="#006AFF"/>
<path id="Vector_7" d="M17.4915 5.4704C18.8158 5.4704 19.8893 4.39687 19.8893 3.0726C19.8893 1.74834 18.8158 0.674805 17.4915 0.674805C16.1673 0.674805 15.0938 1.74834 15.0938 3.0726C15.0938 4.39687 16.1673 5.4704 17.4915 5.4704Z" fill="#006AFF"/>
<path id="Vector_8" d="M83.8451 5.4704C85.1693 5.4704 86.2429 4.39687 86.2429 3.0726C86.2429 1.74834 85.1693 0.674805 83.8451 0.674805C82.5208 0.674805 81.4473 1.74834 81.4473 3.0726C81.4473 4.39687 82.5208 5.4704 83.8451 5.4704Z" fill="#20201D"/>
<path id="Vector_9" d="M121.947 27.9295C121.947 27.9295 117.239 22.9436 117.243 22.9436C119.108 20.5877 120.234 17.619 120.234 14.4295C120.234 10.8557 118.902 7.62436 116.691 5.19992C114.198 2.45197 110.59 0.739258 106.544 0.739258H106.262C101.01 0.739258 96.3782 3.73841 94.0908 8.1572C94.0908 8.16101 94.0832 8.16482 94.0832 8.16862C93.1164 10.0412 92.5684 12.165 92.5684 14.4295C92.5684 22.0188 98.5819 27.9295 106.019 28.1198C106.236 28.1427 106.502 28.0665 106.712 27.998C106.906 27.9371 107.092 27.8496 107.263 27.7354C107.61 27.5032 107.88 27.1683 108.04 26.7839V26.7725C108.059 26.7382 108.07 26.704 108.082 26.6735C108.093 26.6393 108.112 26.605 108.12 26.567C108.131 26.5289 108.139 26.4908 108.146 26.449C108.154 26.4109 108.162 26.3729 108.169 26.3348V26.3158C108.181 26.2549 108.181 26.1902 108.184 26.1255C108.184 26.0798 108.196 26.0379 108.196 25.9922C108.196 25.2653 107.728 24.5345 107.081 24.1577C106.83 24.0131 106.559 23.9332 106.274 23.9065C106.236 23.9065 106.202 23.9065 106.163 23.8989C106.042 23.8913 105.916 23.8913 105.794 23.8837C105.673 23.8761 105.547 23.8685 105.425 23.8533C105.178 23.8304 104.93 23.7962 104.687 23.7505C104.683 23.7505 104.679 23.7505 104.675 23.7505C104.504 23.7162 104.34 23.6744 104.169 23.6325C102.365 23.2138 100.698 22.2433 99.4459 20.9949C98.6656 20.2109 98.129 19.3127 97.6113 18.2888C97.52 18.0909 97.4401 17.893 97.364 17.6913C97.364 17.6761 97.3563 17.6609 97.3487 17.6456C97.0214 16.6446 96.8083 15.5371 96.8083 14.3268C96.8083 14.1936 96.8083 14.0604 96.8159 13.9271C96.8882 12.1155 97.4401 10.3343 98.4715 8.9108C100.142 6.40643 103.058 4.73939 106.392 4.73939C109.726 4.73939 112.645 6.40643 114.308 8.9108C115.142 10.0564 115.663 11.4342 115.869 12.8767C115.941 13.3562 115.975 13.8396 115.975 14.3268C115.975 15.6284 115.713 16.892 115.245 18.0415C115.02 18.5971 114.742 19.13 114.419 19.6362C114.194 19.9863 113.97 20.3403 113.68 20.641C113.326 21.014 112.881 21.3261 112.622 21.779C112.607 21.8018 112.596 21.8246 112.584 21.8437C112.573 21.8627 112.561 21.8779 112.554 21.8932C112.55 21.9008 112.542 21.9084 112.539 21.916C112.531 21.935 112.523 21.9502 112.516 21.9693C112.489 22.0226 112.466 22.0758 112.447 22.1329C112.443 22.1406 112.44 22.1482 112.436 22.1596C112.432 22.1748 112.428 22.19 112.424 22.2053C112.417 22.2319 112.409 22.2547 112.402 22.2814C112.394 22.3118 112.383 22.3385 112.375 22.3689C112.364 22.4108 112.356 22.4564 112.348 22.5021C112.348 22.525 112.341 22.544 112.341 22.5668C112.314 22.7533 112.314 22.9398 112.329 23.1263C112.333 23.1834 112.337 23.2405 112.344 23.2976C112.344 23.309 112.348 23.3166 112.352 23.328C112.36 23.3623 112.367 23.3927 112.375 23.427C112.386 23.4765 112.394 23.5259 112.409 23.5754C112.409 23.5754 112.409 23.5868 112.417 23.5906C112.421 23.6059 112.428 23.6211 112.432 23.6401C112.447 23.6858 112.462 23.7315 112.478 23.7771C112.485 23.8038 112.493 23.8304 112.504 23.8533C112.523 23.8951 112.542 23.937 112.565 23.9789C112.565 23.9865 112.573 23.9941 112.577 23.9979C112.638 24.1159 112.706 24.2263 112.782 24.3214L113.361 24.9646C113.361 24.9646 114.031 25.7144 114.034 25.7144L118.895 30.8525C119.31 31.2712 119.865 31.4082 120.421 31.4082C120.977 31.4082 121.532 31.2674 121.947 30.8525C122.781 30.019 122.781 28.7668 121.947 27.9371V27.9295Z" fill="#006AFF"/>
<path id="Vector_10" d="M125.008 35.3251C126.155 35.3251 127.086 34.3947 127.086 33.247C127.086 32.0993 126.155 31.1689 125.008 31.1689C123.86 31.1689 122.93 32.0993 122.93 33.247C122.93 34.3947 123.86 35.3251 125.008 35.3251Z" fill="#006AFF"/>
</g>
</svg>
